<?xml version="1.0" encoding="utf-8"?>
<!-- Generator: Adobe Illustrator 26.5.0, SVG Export Plug-In . SVG Version: 6.00 Build 0)  -->
<svg version="1.1" id="Layer_1" xmlns="http://www.w3.org/2000/svg" xmlns:xlink="http://www.w3.org/1999/xlink" x="0px" y="0px"
	 viewBox="0 0 394 398" style="enable-background:new 0 0 394 398;" xml:space="preserve">
<style type="text/css">
	.st0{fill:none;stroke:#CFD1D2;stroke-width:13.5;stroke-linecap:round;stroke-linejoin:round;stroke-miterlimit:10;}
</style>
<path class="st0" d="M106.48,151.4h32.62c2.75,0,4.98-2.23,4.98-4.98v-32.34"/>
<line class="st0" x1="199.5" y1="180.58" x2="264.9" y2="180.58"/>
<line class="st0" x1="136.07" y1="180.58" x2="173.37" y2="180.58"/>
<line class="st0" x1="247.51" y1="208.18" x2="264.9" y2="208.18"/>
<line class="st0" x1="136.07" y1="208.18" x2="222.91" y2="208.18"/>
<line class="st0" x1="136.07" y1="290.98" x2="220.1" y2="290.98"/>
<line class="st0" x1="182.63" y1="263.38" x2="264.9" y2="263.38"/>
<line class="st0" x1="136.07" y1="263.38" x2="158.03" y2="263.38"/>
<line class="st0" x1="136.07" y1="235.78" x2="264.9" y2="235.78"/>
<path class="st0" d="M285.38,380.5c6.47,0,11.72-5.25,11.72-11.72V125.59c0-6.47-5.25-11.72-11.72-11.72H146.24
	c-3.11,0-6.09,1.23-8.29,3.43l-30.66,30.66c-2.2,2.2-3.43,5.18-3.43,8.29v212.53c0,6.47,5.25,11.72,11.72,11.72H285.38z"/>
<path class="st0" d="M183.82,80.66l32.07,6.01c2.7,0.51,5.3-1.27,5.81-3.98l5.96-31.79"/>
<path class="st0" d="M317.47,338.8c6.36,1.19,12.49-3,13.68-9.36l44.79-239.02c1.19-6.36-3-12.49-9.36-13.68L229.81,51.1
	c-3.06-0.57-6.21,0.09-8.78,1.85l-35.78,24.48c-2.57,1.76-4.33,4.46-4.9,7.51l-1.9,10.11"/>
<path class="st0" d="M27.52,104.13L59,95.56c2.65-0.72,4.22-3.46,3.49-6.11l-8.5-31.2"/>
<path class="st0" d="M206.8,36.97l-2.13-7.82c-1.7-6.25-8.14-9.93-14.39-8.23L56.02,57.48c-3,0.82-5.55,2.79-7.09,5.49L27.4,100.61
	c-1.54,2.7-1.95,5.9-1.13,8.9l55.85,205.06"/>
</svg>
