<?xml version="1.0" encoding="utf-8"?>
<!-- Generator: Adobe Illustrator 26.5.0, SVG Export Plug-In . SVG Version: 6.00 Build 0)  -->
<svg version="1.1" id="Layer_1" xmlns="http://www.w3.org/2000/svg" xmlns:xlink="http://www.w3.org/1999/xlink" x="0px" y="0px"
	 viewBox="0 0 144 117.5" style="enable-background:new 0 0 144 117.5;" xml:space="preserve">
<style type="text/css">
	.st0{fill:#B8BABC;}
</style>
<g>
	<path class="st0" d="M60.7,99.8H13.3c-1.8,0-3.2-1.4-3.2-3.2V30.2c0-2-1.7-3.7-3.7-3.7c-2,0-3.7,1.7-3.7,3.7v66.4
		c0,5.8,4.7,10.6,10.6,10.6h47.4c2,0,3.7-1.7,3.7-3.7C64.4,101.4,62.7,99.8,60.7,99.8z"/>
	<path class="st0" d="M129,97.4c1.4,0,2.5-1.1,2.5-2.5v-8.3c0-1.4-1.1-2.5-2.5-2.5c-1.4,0-2.5,1.1-2.5,2.5v5.9H80.8
		c-2.4,0-4.6,0.7-6.4,2v-64c0-3.5,2.9-6.4,6.4-6.4h1.7c1.4,0,2.5-1.1,2.5-2.5s-1.1-2.5-2.5-2.5h-1.7c-3.6,0-6.8,1.7-8.8,4.3
		c-2.1-2.6-5.3-4.3-8.8-4.3H15c-1.4,0-2.5,1.1-2.5,2.5v73.3c0,1.4,1.1,2.5,2.5,2.5h48.2c3.5,0,6.4,2.9,6.4,6.4
		c0,1.4,1.1,2.5,2.5,2.5s2.5-1.1,2.5-2.5c0-3.5,2.9-6.4,6.4-6.4H129z M69.5,94.4c-1.8-1.2-4-2-6.4-2H17.4V24.1h45.7
		c3.5,0,6.4,2.9,6.4,6.4V94.4z"/>
	<path class="st0" d="M137.6,81.8c-2,0-3.7,1.7-3.7,3.7v11.1c0,1.8-1.4,3.2-3.2,3.2H83.3c-2,0-3.7,1.7-3.7,3.7c0,2,1.7,3.7,3.7,3.7
		h47.4c5.8,0,10.6-4.7,10.6-10.6V85.5C141.3,83.5,139.6,81.8,137.6,81.8z"/>
	<path class="st0" d="M59.8,33.1H27c-1.4,0-2.5,1.1-2.5,2.5c0,1.4,1.1,2.5,2.5,2.5h32.8c1.4,0,2.5-1.1,2.5-2.5
		C62.3,34.2,61.2,33.1,59.8,33.1z"/>
	<path class="st0" d="M59.8,44H27c-1.4,0-2.5,1.1-2.5,2.5c0,1.4,1.1,2.5,2.5,2.5h32.8c1.4,0,2.5-1.1,2.5-2.5
		C62.3,45.1,61.2,44,59.8,44z"/>
	<path class="st0" d="M59.8,54.9H27c-1.4,0-2.5,1.1-2.5,2.5c0,1.4,1.1,2.5,2.5,2.5h32.8c1.4,0,2.5-1.1,2.5-2.5
		C62.3,56,61.2,54.9,59.8,54.9z"/>
	<path class="st0" d="M48.4,65.9H27c-1.4,0-2.5,1.1-2.5,2.5c0,1.4,1.1,2.5,2.5,2.5h21.3c1.4,0,2.5-1.1,2.5-2.5
		C50.8,67,49.7,65.9,48.4,65.9z"/>
</g>
<g>
	<path class="st0" d="M128,68.6c-0.4-0.1-0.8-0.1-1.2-0.2c-3.1-0.4-5.1-0.9-5.1-3.9V51.3c0-8.2,5.3-17.9,18.9-34.5
		c0.5-0.7,0.6-1.5,0.3-2.3c-0.4-0.8-1.1-1.2-2-1.2h-18.8c-0.8,0-1.5,0.7-1.5,1.5c0,0.8,0.7,1.5,1.5,1.5h17.2c-2.2,2.7-4.2,5.3-6,7.7
		h-26.2c-1.8-2.4-3.8-4.9-6-7.7h5.1c0.8,0,1.5-0.7,1.5-1.5c0-0.8-0.7-1.5-1.5-1.5h-6.7c-0.8,0-1.6,0.5-2,1.2
		c-0.4,0.8-0.3,1.6,0.3,2.3c13.6,16.6,18.9,26.3,18.9,34.5v13.1c0,3-1.9,3.5-5.1,3.9c-0.4,0.1-0.9,0.1-1.2,0.2
		c-1.7,0.3-4.6,0.9-4.4,2.9c0.1,1.4,1.5,2.1,5.2,2.7c2.5,0.4,5.7,0.6,8.9,0.6h0.3c3.2,0,6.4-0.2,8.9-0.6c3.6-0.5,5-1.3,5.2-2.7
		C132.6,69.5,129.7,68.9,128,68.6z M120.3,39.5c-0.2,0-0.4,0-0.6-0.1c-0.7-0.3-1.1-1.2-0.7-1.9c0.9-2,2-4.1,3.3-6.3
		c0.4-0.7,1.3-0.9,2-0.5c0.7,0.4,0.9,1.3,0.5,2c-1.3,2.1-2.3,4.1-3.1,6C121.4,39.2,120.9,39.5,120.3,39.5z"/>
	<path class="st0" d="M114.8,16.2h0.4c0.8,0,1.5-0.7,1.5-1.5c0-0.8-0.7-1.5-1.5-1.5h-0.4c-0.8,0-1.5,0.7-1.5,1.5
		C113.3,15.5,113.9,16.2,114.8,16.2z"/>
	<path class="st0" d="M109.3,16.2h0.4c0.8,0,1.5-0.7,1.5-1.5c0-0.8-0.7-1.5-1.5-1.5h-0.4c-0.8,0-1.5,0.7-1.5,1.5
		C107.8,15.5,108.4,16.2,109.3,16.2z"/>
</g>
</svg>
