<?xml version="1.0" encoding="utf-8"?>
<!-- Generator: Adobe Illustrator 26.5.0, SVG Export Plug-In . SVG Version: 6.00 Build 0)  -->
<svg version="1.1" id="Layer_1" xmlns="http://www.w3.org/2000/svg" xmlns:xlink="http://www.w3.org/1999/xlink" x="0px" y="0px"
	 viewBox="0 0 576 576" style="enable-background:new 0 0 576 576;" xml:space="preserve">
<style type="text/css">
	.st0{fill:#010101;}
</style>
<g>
	<path class="st0" d="M470.7,294.5H91.6c-2.9,0-5.3-2.4-5.3-5.3v-36c0-2.9,2.4-5.3,5.3-5.3h379.1c2.9,0,5.3,2.4,5.3,5.3v36
		C476,292.1,473.7,294.5,470.7,294.5z M96.9,283.9h368.5v-25.4H96.9V283.9z"/>
	<path class="st0" d="M447,317.7H115.3c-2.9,0-5.3-2.4-5.3-5.3v-23.2c0-2.9,2.4-5.3,5.3-5.3H447c2.9,0,5.3,2.4,5.3,5.3v23.2
		C452.3,315.3,449.9,317.7,447,317.7z M120.6,307.1h321.1v-12.6H120.6V307.1z"/>
	<path class="st0" d="M460.1,487.8H102.2c-2.9,0-5.3-2.4-5.3-5.3c0-2.9,2.4-5.3,5.3-5.3h357.9c2.9,0,5.3,2.4,5.3,5.3
		C465.4,485.4,463,487.8,460.1,487.8z"/>
	<path class="st0" d="M289.1,450.4h-15.9c-2.9,0-5.3-2.4-5.3-5.3c0-2.9,2.4-5.3,5.3-5.3h15.9c2.9,0,5.3,2.4,5.3,5.3
		C294.4,448,292.1,450.4,289.1,450.4z"/>
	<path class="st0" d="M196.7,487.8h-87.9c-1.8,0-3.4-0.9-4.4-2.4c-1-1.5-1.2-3.4-0.5-5l15.9-37.4c0.8-2,2.8-3.2,4.9-3.2h56
		c2.1,0,4,1.3,4.9,3.2l15.9,37.4c0.7,1.6,0.5,3.5-0.5,5C200.2,486.9,198.5,487.8,196.7,487.8z M116.9,477.2h71.8l-11.4-26.8h-49
		L116.9,477.2z"/>
	<path class="st0" d="M164.5,450.4h-23.4c-2.9,0-5.3-2.4-5.3-5.3v-84.7c0-2.9,2.4-5.3,5.3-5.3h23.4c2.9,0,5.3,2.4,5.3,5.3v84.7
		C169.8,448,167.4,450.4,164.5,450.4z M146.4,439.8h12.8v-74.1h-12.8V439.8z"/>
	<path class="st0" d="M188.8,365.6h-72.1c-1.5,0-2.9-0.6-3.9-1.7l-6-6.5c-3.8-4.1-4.8-9.9-2.5-15.1c2.3-5.2,7.2-8.4,12.8-8.4h71.2
		c5.6,0,10.5,3.2,12.8,8.4c2.3,5.2,1.3,10.9-2.5,15.1l-6,6.5C191.7,365,190.3,365.6,188.8,365.6z M119.1,355h67.4l4.4-4.8
		c1.3-1.5,0.9-3,0.6-3.6c-0.3-0.6-1.1-2-3.1-2h-71.2c-2,0-2.8,1.4-3.1,2c-0.3,0.6-0.7,2.2,0.6,3.6L119.1,355z"/>
	<path class="st0" d="M196.7,450.4h-15.9c-2.9,0-5.3-2.4-5.3-5.3c0-2.9,2.4-5.3,5.3-5.3h15.9c2.9,0,5.3,2.4,5.3,5.3
		C202,448,199.7,450.4,196.7,450.4z"/>
	<path class="st0" d="M124.8,450.4h-15.9c-2.9,0-5.3-2.4-5.3-5.3c0-2.9,2.4-5.3,5.3-5.3h15.9c2.9,0,5.3,2.4,5.3,5.3
		C130.1,448,127.7,450.4,124.8,450.4z"/>
	<path class="st0" d="M453.5,450.4h-15.9c-2.9,0-5.3-2.4-5.3-5.3c0-2.9,2.4-5.3,5.3-5.3h15.9c2.9,0,5.3,2.4,5.3,5.3
		C458.8,448,456.4,450.4,453.5,450.4z"/>
	<path class="st0" d="M325.1,487.8h-87.9c-1.8,0-3.4-0.9-4.4-2.4c-1-1.5-1.2-3.4-0.5-5l15.9-37.4c0.8-2,2.8-3.2,4.9-3.2h56
		c2.1,0,4,1.3,4.9,3.2l15.9,37.4c0.7,1.6,0.5,3.5-0.5,5S326.9,487.8,325.1,487.8z M245.3,477.2h71.8l-11.4-26.8h-49L245.3,477.2z"/>
	<path class="st0" d="M292.9,450.4h-23.4c-2.9,0-5.3-2.4-5.3-5.3v-84.7c0-2.9,2.4-5.3,5.3-5.3h23.4c2.9,0,5.3,2.4,5.3,5.3v84.7
		C298.2,448,295.8,450.4,292.9,450.4z M274.8,439.8h12.8v-74.1h-12.8V439.8z"/>
	<path class="st0" d="M317.2,365.6h-72.1c-1.5,0-2.9-0.6-3.9-1.7l-6-6.5c-3.8-4.1-4.8-9.9-2.5-15.1c2.3-5.2,7.2-8.4,12.8-8.4h71.2
		c5.6,0,10.5,3.2,12.8,8.4c2.3,5.2,1.3,10.9-2.5,15.1l-6,6.5C320.1,365,318.7,365.6,317.2,365.6z M247.5,355h67.4l4.4-4.8
		c1.3-1.5,0.9-3,0.6-3.6c-0.3-0.6-1.1-2-3.1-2h-71.2c-2,0-2.8,1.4-3.1,2c-0.3,0.6-0.7,2.2,0.6,3.6L247.5,355z"/>
	<path class="st0" d="M325.1,450.4h-15.9c-2.9,0-5.3-2.4-5.3-5.3c0-2.9,2.4-5.3,5.3-5.3h15.9c2.9,0,5.3,2.4,5.3,5.3
		C330.4,448,328,450.4,325.1,450.4z"/>
	<path class="st0" d="M253.2,450.4h-15.9c-2.9,0-5.3-2.4-5.3-5.3c0-2.9,2.4-5.3,5.3-5.3h15.9c2.9,0,5.3,2.4,5.3,5.3
		C258.5,448,256.1,450.4,253.2,450.4z"/>
	<path class="st0" d="M453.5,487.8h-87.9c-1.8,0-3.4-0.9-4.4-2.4c-1-1.5-1.2-3.4-0.5-5l15.9-37.4c0.8-2,2.8-3.2,4.9-3.2h56
		c2.1,0,4,1.3,4.9,3.2l15.9,37.4c0.7,1.6,0.5,3.5-0.5,5S455.3,487.8,453.5,487.8z M373.6,477.2h71.8l-11.4-26.8h-49L373.6,477.2z"/>
	<path class="st0" d="M421.3,450.4h-23.4c-2.9,0-5.3-2.4-5.3-5.3v-84.7c0-2.9,2.4-5.3,5.3-5.3h23.4c2.9,0,5.3,2.4,5.3,5.3v84.7
		C426.6,448,424.2,450.4,421.3,450.4z M403.2,439.8H416v-74.1h-12.8V439.8z"/>
	<path class="st0" d="M445.6,365.6h-72.1c-1.5,0-2.9-0.6-3.9-1.7l-6-6.5c-3.8-4.1-4.8-9.9-2.5-15.1c2.3-5.2,7.2-8.4,12.8-8.4h71.2
		c5.6,0,10.5,3.2,12.8,8.4c2.3,5.2,1.3,10.9-2.5,15.1l-6,6.5C448.5,365,447.1,365.6,445.6,365.6z M375.9,355h67.4l4.4-4.8
		c1.3-1.5,0.9-3,0.6-3.6c-0.3-0.6-1.1-2-3.1-2h-71.2c-2,0-2.8,1.4-3.1,2c-0.3,0.6-0.7,2.2,0.6,3.6L375.9,355z"/>
	<path class="st0" d="M381.5,450.4h-15.9c-2.9,0-5.3-2.4-5.3-5.3c0-2.9,2.4-5.3,5.3-5.3h15.9c2.9,0,5.3,2.4,5.3,5.3
		C386.8,448,384.5,450.4,381.5,450.4z"/>
	<path class="st0" d="M470.7,201.9H91.6c-2.9,0-5.3-2.4-5.3-5.3V87.9c0-2.9,2.4-5.3,5.3-5.3h379.1c2.9,0,5.3,2.4,5.3,5.3v108.7
		C476,199.6,473.7,201.9,470.7,201.9z M96.9,191.3h368.5V93.2H96.9V191.3z"/>
	<path class="st0" d="M345.5,201.9H216.9c-2.9,0-5.3-2.4-5.3-5.3V87.9c0-2.9,2.4-5.3,5.3-5.3h128.6c2.9,0,5.3,2.4,5.3,5.3v108.7
		C350.8,199.6,348.4,201.9,345.5,201.9z M222.2,191.3h118V93.2h-118V191.3z"/>
	<path class="st0" d="M470.7,147.6H91.6c-2.9,0-5.3-2.4-5.3-5.3c0-2.9,2.4-5.3,5.3-5.3h379.1c2.9,0,5.3,2.4,5.3,5.3
		C476,145.2,473.7,147.6,470.7,147.6z"/>
	<path class="st0" d="M391.9,147.6h-20.8c-2.9,0-5.3-2.4-5.3-5.3v-29.1c0-2.9,2.4-5.3,5.3-5.3h20.8c2.9,0,5.3,2.4,5.3,5.3v29.1
		C397.2,145.2,394.8,147.6,391.9,147.6z M376.4,137h10.1v-18.5h-10.1V137z"/>
	<path class="st0" d="M438.2,147.6h-20.8c-2.9,0-5.3-2.4-5.3-5.3v-29.1c0-2.9,2.4-5.3,5.3-5.3h20.8c2.9,0,5.3,2.4,5.3,5.3v29.1
		C443.5,145.2,441.1,147.6,438.2,147.6z M422.8,137h10.1v-18.5h-10.1V137z"/>
	<path class="st0" d="M447.5,201.9h-60.2c-2.9,0-5.3-2.4-5.3-5.3v-24.7c0-2.9,2.4-5.3,5.3-5.3h60.2c2.9,0,5.3,2.4,5.3,5.3v24.7
		C452.8,199.6,450.4,201.9,447.5,201.9z M392.6,191.3h49.6v-14.1h-49.6V191.3z"/>
	<path class="st0" d="M124,147.6h-14.6c-2.9,0-5.3-2.4-5.3-5.3v-19.8c0-2.3,1.5-4.3,3.6-5v-12.5c0-2.9,2.4-5.3,5.3-5.3h7.4
		c2.9,0,5.3,2.4,5.3,5.3v12.5c2.1,0.7,3.6,2.7,3.6,5v19.8C129.3,145.2,126.9,147.6,124,147.6z M114.7,137h4v-9.5
		c-0.8-0.3-1.4-0.7-2-1.2c-0.6,0.5-1.2,1-2,1.2V137z"/>
	<path class="st0" d="M161.4,147.6h-14.6c-2.9,0-5.3-2.4-5.3-5.3v-19.8c0-2.3,1.5-4.3,3.6-5v-12.5c0-2.9,2.4-5.3,5.3-5.3h7.4
		c2.9,0,5.3,2.4,5.3,5.3v12.5c2.1,0.7,3.6,2.7,3.6,5v19.8C166.8,145.2,164.4,147.6,161.4,147.6z M152.2,137h4v-9.5
		c-0.8-0.3-1.4-0.7-2-1.2c-0.6,0.5-1.2,1-2,1.2V137z"/>
	<path class="st0" d="M198.9,147.6h-14.6c-2.9,0-5.3-2.4-5.3-5.3v-19.8c0-2.3,1.5-4.3,3.6-5v-12.5c0-2.9,2.4-5.3,5.3-5.3h7.4
		c2.9,0,5.3,2.4,5.3,5.3v12.5c2.1,0.7,3.6,2.7,3.6,5v19.8C204.2,145.2,201.9,147.6,198.9,147.6z M189.6,137h4v-9.5
		c-0.8-0.3-1.4-0.7-2-1.2c-0.6,0.5-1.2,1-2,1.2V137z"/>
	<path class="st0" d="M251,145.1h-14.6c-2.9,0-5.3-2.4-5.3-5.3V120c0-2.3,1.5-4.3,3.6-5v-12.5c0-2.9,2.4-5.3,5.3-5.3h7.4
		c2.9,0,5.3,2.4,5.3,5.3V115c2.1,0.7,3.6,2.7,3.6,5v19.8C256.3,142.7,253.9,145.1,251,145.1z M241.7,134.5h4V125
		c-0.8-0.3-1.4-0.7-2-1.2c-0.6,0.5-1.2,1-2,1.2V134.5z"/>
	<path class="st0" d="M288.5,145.1h-14.6c-2.9,0-5.3-2.4-5.3-5.3V120c0-2.3,1.5-4.3,3.6-5v-12.5c0-2.9,2.4-5.3,5.3-5.3h7.4
		c2.9,0,5.3,2.4,5.3,5.3V115c2.1,0.7,3.6,2.7,3.6,5v19.8C293.8,142.7,291.4,145.1,288.5,145.1z M279.2,134.5h4V125
		c-0.8-0.3-1.4-0.7-2-1.2c-0.6,0.5-1.2,1-2,1.2V134.5z"/>
	<path class="st0" d="M326,145.1h-14.6c-2.9,0-5.3-2.4-5.3-5.3V120c0-2.3,1.5-4.3,3.6-5v-12.5c0-2.9,2.4-5.3,5.3-5.3h7.4
		c2.9,0,5.3,2.4,5.3,5.3V115c2.1,0.7,3.6,2.7,3.6,5v19.8C331.3,142.7,328.9,145.1,326,145.1z M316.7,134.5h4V125
		c-0.8-0.3-1.4-0.7-2-1.2c-0.6,0.5-1.2,1-2,1.2V134.5z"/>
</g>
</svg>
