<?xml version="1.0" encoding="utf-8"?>
<!-- Generator: Adobe Illustrator 26.5.0, SVG Export Plug-In . SVG Version: 6.00 Build 0)  -->
<svg version="1.1" xmlns="http://www.w3.org/2000/svg" xmlns:xlink="http://www.w3.org/1999/xlink" x="0px" y="0px"
	 viewBox="0 0 3314.11 2629.27" style="enable-background:new 0 0 3314.11 2629.27;" xml:space="preserve">
<style type="text/css">
	.st0{fill:#A7A9AC;}
</style>
<g id="background">
	<g>
		<g>
			<g>
				<g>
					<path class="st0" d="M1882.27,2265.09h-672.73l-0.15-57.28V1003.7l2.01-7.59c1.95-7.05,43.36-150.95,187.75-197.39
						l-0.98-579.03l-15.27-16.89l-0.46-162.36l379.3-0.99l0.43,163.99l-15.27,15.41l0.99,578.97
						c144.55,45.71,186.71,189.31,188.61,196.03l2.14,7.6l0.04,8.18l0.93,1255.3L1882.27,2265.09z M1323.67,2150.82h501.56
						l-0.84-1131.95c-9.24-24.8-46.48-106.06-141.15-118.72l-49.48-6.62l-1.23-720.11l15.23-15.25l-0.01-4.13l-150.75,0.4l0.54,4.76
						l2.72,3.24l12.05,15.48l0.1,19.87l1.18,696.08l-49.35,6.86c-95.17,13.23-131.84,95.6-140.56,119.5V2150.82z"/>
				</g>
			</g>
		</g>
		<g>
			<g>
				<rect x="30.67" y="2436.49" class="st0" width="3244.75" height="114.28"/>
			</g>
			<g>
				<rect x="30.67" y="2207.94" class="st0" width="3244.75" height="114.28"/>
			</g>
		</g>
		<g>
			<rect x="1266.53" y="1272.31" class="st0" width="615.88" height="114.28"/>
		</g>
		<g>
			<rect x="1266.53" y="1793.69" class="st0" width="615.88" height="114.28"/>
		</g>
		<g>
			<path class="st0" d="M3047.14,2322.22h-899.91c-47.26,0-85.71-38.45-85.71-85.71v-821.36c0-36.7,22.45-74.7,54.59-92.4
				l296.79-163.55l18.86-446.43c1.94-45.91,40.91-83.27,86.86-83.27h157.12c45.96,0,84.92,37.36,86.86,83.27l18.86,446.43
				l296.8,163.55c32.13,17.7,54.58,55.7,54.58,92.4v821.36C3132.84,2283.77,3094.4,2322.22,3047.14,2322.22z M2175.8,2207.94h842.77
				v-787.61l-295.39-162.76c-31.3-17.24-54.22-54.23-55.74-89.94l-17.9-423.85h-104.71l-17.9,423.83
				c-1.51,35.71-24.43,72.71-55.75,89.96l-295.38,162.76V2207.94z"/>
		</g>
		<g>
			<path class="st0" d="M2754.17,743.78h-371.12l-0.15-273.64l57.29-0.15h371.12l0.15,273.64L2754.17,743.78z M2497.18,629.5h200
				v-45.24h-200V629.5z"/>
		</g>
		<g>
			<rect x="2118.66" y="1536.57" class="st0" width="957.05" height="114.28"/>
		</g>
		<g>
			<rect x="2118.66" y="1907.97" class="st0" width="957.05" height="114.28"/>
		</g>
		<g>
			<rect x="2350.78" y="1722.27" class="st0" width="114.28" height="114.28"/>
		</g>
		<g>
			<rect x="2540.04" y="1722.27" class="st0" width="114.28" height="114.28"/>
		</g>
		<g>
			<rect x="2729.31" y="1722.27" class="st0" width="114.28" height="114.28"/>
		</g>
		<g>
			<path class="st0" d="M765.06,733.05H444.39l-0.14-264.12l377.95-0.15l0.15,264.12L765.06,733.05z M558.52,618.78h149.54v-35.71
				H558.52V618.78z"/>
		</g>
		<g>
			<path class="st0" d="M940.04,2322.22H226.55l-0.15-57.28V1009.64l271.41-0.15V618.92l270.81-0.15l0.15,57.28v333.43h228.41
				l0.15,57.29v1255.29L940.04,2322.22z M340.68,2207.94h542.37V1123.77H654.64l-0.14-57.28V733.05h-42.41v390.58l-271.41,0.14
				V2207.94z"/>
		</g>
		<g>
			<rect x="283.54" y="1186.59" class="st0" width="656.65" height="114.28"/>
		</g>
		<g>
			<rect x="283.54" y="2007.97" class="st0" width="656.65" height="114.28"/>
		</g>
		<g>
			<path class="st0" d="M611.87,1861.32c-116.06,0-210.48-94.42-210.48-210.47c0-116.05,94.42-210.47,210.48-210.47
				c116.05,0,210.47,94.42,210.47,210.47C822.34,1766.9,727.92,1861.32,611.87,1861.32z M611.87,1554.65
				c-53.04,0-96.2,43.15-96.2,96.2c0,53.04,43.16,96.2,96.2,96.2c53.04,0,96.2-43.15,96.2-96.2
				C708.06,1597.8,664.91,1554.65,611.87,1554.65z"/>
		</g>
	</g>
</g>
<g id="Layer_2">
</g>
</svg>
