<?xml version="1.0" encoding="utf-8"?>
<!-- Generator: Adobe Illustrator 26.5.0, SVG Export Plug-In . SVG Version: 6.00 Build 0)  -->
<svg version="1.1" id="Layer_1" xmlns="http://www.w3.org/2000/svg" xmlns:xlink="http://www.w3.org/1999/xlink" x="0px" y="0px"
	 viewBox="0 0 576 576" style="enable-background:new 0 0 576 576;" xml:space="preserve">
<style type="text/css">
	.st0{fill:#091B26;}
	.st1{fill:#5BC6D0;}
</style>
<g>
	<g>
		
			<ellipse transform="matrix(0.7071 -0.7071 0.7071 0.7071 -50.835 196.9059)" class="st0" cx="212.3" cy="159.8" rx="37.6" ry="37.6"/>
		<path class="st0" d="M224.2,204.6h-24c-6.4,0-12.4,2-17.4,5.3c-2.2,0.6-4.3,1.7-6.1,3.2c-9.1,8-15.8,18.2-21.2,26.3
			c-0.6,0.9-1.3,1.9-1.9,2.9c-1.7-4-4-9.9-6.8-18.5c-2.6-8-11.1-12.4-19.1-9.8c-8,2.6-12.4,11.1-9.8,19.1
			c8.8,27.4,16.9,43.7,31.9,45.7c1,0.1,1.9,0.2,2.9,0.2c5.9,0,11.4-2.5,16.5-7.5v68.2c0,17.1,13.9,31,31,31h24c17.1,0,31-13.9,31-31
			V235.5C255.2,218.4,241.4,204.6,224.2,204.6z"/>
		<path class="st1" d="M220.5,256.5c4.8-15.8,8.4-32.9,10.9-51.2c0,0-3.2-0.9-7.2-0.9c-4,0-12,0-12,0s-8,0-12,0s-7.2,0.9-7.2,0.9
			c3.2,22.9,8,44.1,14.8,63.1C210.8,266.6,215.5,262.6,220.5,256.5z"/>
		<g>
			<circle class="st0" cx="212.3" cy="234.9" r="4"/>
			<circle class="st0" cx="212.3" cy="253.3" r="4"/>
			<path class="st0" d="M224.7,205.4l-9.3,4.4c-0.1-0.7-0.7-1.3-1.5-1.3h-3.4c-0.8,0-1.4,0.6-1.5,1.3l-9.3-4.4
				c-0.6-0.3-1.2,0.2-1.1,0.9l0.7,12.8c0,0.7,0.7,1.1,1.3,0.7l8.6-5.6c0.3,0.4,0.7,0.7,1.3,0.7h3.4c0.5,0,1-0.3,1.3-0.7l8.6,5.6
				c0.5,0.4,1.2,0,1.3-0.7l0.7-12.8C225.9,205.7,225.3,205.2,224.7,205.4z"/>
		</g>
		<g>
			<path class="st1" d="M135.3,192.3l-8.5,59.5c0,0,4.2,3.5,12,5.4c0,0,0.1,0,0.1,0c0,0,0.1,0,0.1,0c7.9,1.7,13.2,0.3,13.2,0.3
				l17.8-57.4l-7.4-11.2l0.4-6.8l-13.7-3.1l-2.5,6.3L135.3,192.3z"/>
			<path class="st0" d="M171,199.5l-7.2-10.8l0.4-6.4c0-0.6-0.4-1.1-0.9-1.2l-13.7-3.1c-0.6-0.1-1.2,0.2-1.4,0.7l-2.4,5.9l-11.2,6.7
				c-0.3,0.2-0.5,0.5-0.6,0.9l-8.5,59.5c-0.1,0.4,0.1,0.8,0.4,1.1c0.2,0.2,4.5,3.7,12.5,5.6c0.1,0,0.1,0,0.2,0.1l0.1,0
				c3.1,0.7,5.8,0.9,8,0.9c3.5,0,5.6-0.5,5.8-0.6c0.4-0.1,0.7-0.4,0.8-0.8l17.8-57.4C171.2,200.1,171.2,199.8,171,199.5z M150,180.5
				l11.7,2.6l-0.3,4.5c-0.6,0.1-3.4,0.6-7-0.2c-3.6-0.8-5.8-2.4-6.1-2.7L150,180.5z M147,186.7c0.8,0.6,3.2,2.2,7,3.1
				c1.7,0.4,3.3,0.5,4.6,0.5c1.6,0,2.7-0.2,3.2-0.3l6.4,9.7c-1.7,0.4-8,1.4-16.4-0.5c-8.3-1.9-13.5-5.5-14.8-6.5L147,186.7z
				 M151.2,256.5c-1.6,0.3-6,0.8-12-0.5c0,0-0.1,0-0.1,0l-0.1,0c-5.9-1.4-9.7-3.8-11-4.7l8.1-56.3c2.1,1.5,7.2,4.7,15.2,6.6
				c4,0.9,7.5,1.2,10.3,1.2c2.9,0,5.2-0.3,6.5-0.5L151.2,256.5z"/>
		</g>
		<path class="st0" d="M248.2,210.2c-6.9-3.2-13.6-4-14.4-3.2c-0.8,0.8-3.2,21.6-3.2,22.4c0,4,1.6,7.2,1.6,7.7
			c-1,3.4-3.8,9.4-9.7,17c-7.2,9.3-14.3,14.7-16.7,15.6c0,0,0,0,0,0c-3-1-12.3-8.7-23.1-17.6c-6.5-5.4-14.6-12.1-24.7-20.2
			c-6.5-5.2-16.1-4.2-21.3,2.3c-5.2,6.5-4.2,16.1,2.3,21.3c9.9,8,17.9,14.6,24.4,19.9c11.5,9.5,18.5,15.3,24.6,19
			c6.1,3.7,11.8,5.5,17.7,5.5c2,0,4.1-0.2,6.2-0.6c13.1-2.5,25.9-16.1,32.4-24c6.5-7.9,17.5-23.3,18.7-38.3
			C263.9,224.6,258.6,215,248.2,210.2z"/>
		<path class="st1" d="M205.8,300.8c-6,0-11.8-1.8-18.1-5.7c-6.1-3.7-13.1-9.5-24.7-19.1c-6.4-5.3-14.4-11.9-24.3-19.9
			c-3.3-2.7-5.4-6.5-5.9-10.7c-0.5-4.2,0.7-8.4,3.4-11.7c2.7-3.3,6.5-5.4,10.7-5.9c4.2-0.5,8.4,0.7,11.7,3.4
			c10.1,8.1,18.2,14.8,24.7,20.2c10,8.2,19.4,16,22.6,17.3c2.3-1.1,8.9-6,16.1-15.2c4.6-5.9,7.1-10.6,8.3-13.4
			c0.2-0.4,0.7-0.6,1.1-0.4c0.4,0.2,0.6,0.7,0.4,1.1c-1.3,2.9-3.8,7.7-8.5,13.8c-7.1,9.1-14.2,14.8-17,15.9c-0.1,0-0.1,0-0.2,0.1
			c-0.1,0-0.2,0-0.3,0c-3.2-1-12.1-8.4-23.4-17.7c-6.5-5.4-14.6-12.1-24.7-20.2c-3-2.4-6.8-3.5-10.6-3.1c-3.8,0.4-7.2,2.3-9.7,5.3
			c-2.4,3-3.5,6.8-3.1,10.6c0.4,3.8,2.3,7.2,5.3,9.7c9.9,8,17.9,14.6,24.4,19.9c11.5,9.5,18.5,15.3,24.5,18.9
			c6.1,3.7,11.6,5.4,17.3,5.4c2,0,3.9-0.2,6-0.6c12.8-2.5,25.5-15.9,31.9-23.7c2.8-3.4,6.8-8.6,10.4-14.8c0.2-0.4,0.7-0.5,1.1-0.3
			c0.4,0.2,0.5,0.7,0.3,1.1c-3.6,6.3-7.7,11.6-10.5,15c-6.6,7.9-19.5,21.7-32.8,24.2C209.9,300.6,207.9,300.8,205.8,300.8z"/>
	</g>
	<g>
		<g>
			<path class="st0" d="M339.7,112v53.9c0,2.2-1.8,4-4,4h-19c-2.2,0-4-1.8-4-4V112c0-1.3,0.5-2.6,1.3-3.6l6.5-7.5
				c0.9-1,1.3-2.3,1.3-3.6V78.9c0-0.5,0.4-0.9,0.9-0.9h6.9c0.5,0,0.9,0.4,0.9,0.9v18.3c0,1.3,0.5,2.6,1.3,3.6l6.5,7.5
				C339.2,109.4,339.7,110.7,339.7,112z"/>
			<path class="st0" d="M331,73.4v2.5c0,0.4-0.3,0.7-0.7,0.7H322c-0.4,0-0.7-0.3-0.7-0.7v-2.5c0-0.4,0.3-0.7,0.7-0.7h8.3
				C330.7,72.7,331,73,331,73.4z"/>
		</g>
		<path class="st0" d="M395.4,182.3v-0.6c0-0.5,0.4-1,1-1h17.4c0.5,0,1,0.4,1,1v0.6c0,0.5-0.4,0.9-0.9,1l-6.5,0.6
			c-0.4,0-0.6,0.3-0.6,0.7v17.2c5.7,0.8,10.1,5.7,10.1,11.6l-1,13.1c0,0.5-0.5,1-1,1h-19.2c-0.5,0-1-0.4-1-1l-1-13.1
			c0-5.9,4.4-10.8,10.1-11.6v-17.2c0-0.4-0.3-0.7-0.6-0.7l-6.5-0.6C395.8,183.2,395.4,182.8,395.4,182.3z"/>
		<path class="st0" d="M367.4,182.3v-0.6c0-0.5,0.4-1,1-1h17.4c0.5,0,1,0.4,1,1v0.6c0,0.5-0.4,0.9-0.9,1l-6.5,0.6
			c-0.4,0-0.6,0.3-0.6,0.7v17.2c5.7,0.8,10.1,5.7,10.1,11.6l-1,13.1c0,0.5-0.5,1-1,1h-19.2c-0.5,0-1-0.4-1-1l-1-13.1
			c0-5.9,4.4-10.8,10.1-11.6v-17.2c0-0.4-0.3-0.7-0.6-0.7l-6.5-0.6C367.8,183.2,367.4,182.8,367.4,182.3z"/>
		<path class="st0" d="M454.2,179H295.6c-1.4,0-2.6-1.2-2.6-2.6v-4.2c0-1.4,1.2-2.6,2.6-2.6h158.6c1.4,0,2.6,1.2,2.6,2.6v4.2
			C456.8,177.8,455.6,179,454.2,179z"/>
		<g>
			<path class="st0" d="M374,112v53.9c0,2.2-1.8,4-4,4h-19c-2.2,0-4-1.8-4-4V112c0-1.3,0.5-2.6,1.3-3.6l6.5-7.5
				c0.9-1,1.3-2.3,1.3-3.6V78.9c0-0.5,0.4-0.9,0.9-0.9h6.9c0.5,0,0.9,0.4,0.9,0.9v18.3c0,1.3,0.5,2.6,1.3,3.6l6.5,7.5
				C373.5,109.4,374,110.7,374,112z"/>
			<path class="st0" d="M365.3,73.4v2.5c0,0.4-0.3,0.7-0.7,0.7h-8.3c-0.4,0-0.7-0.3-0.7-0.7v-2.5c0-0.4,0.3-0.7,0.7-0.7h8.3
				C365,72.7,365.3,73,365.3,73.4z"/>
		</g>
		<g>
			<path class="st0" d="M408.4,112v53.9c0,2.2-1.8,4-4,4h-19c-2.2,0-4-1.8-4-4V112c0-1.3,0.5-2.6,1.3-3.6l6.5-7.5
				c0.9-1,1.3-2.3,1.3-3.6V78.9c0-0.5,0.4-0.9,0.9-0.9h6.9c0.5,0,0.9,0.4,0.9,0.9v18.3c0,1.3,0.5,2.6,1.3,3.6l6.5,7.5
				C407.9,109.4,408.4,110.7,408.4,112z"/>
			<path class="st0" d="M399.7,73.4v2.5c0,0.4-0.3,0.7-0.7,0.7h-8.3c-0.4,0-0.7-0.3-0.7-0.7v-2.5c0-0.4,0.3-0.7,0.7-0.7h8.3
				C399.4,72.7,399.7,73,399.7,73.4z"/>
		</g>
		<path class="st0" d="M423.5,182.3v-0.6c0-0.5,0.4-1,1-1h17.4c0.5,0,1,0.4,1,1v0.6c0,0.5-0.4,0.9-0.9,1l-6.5,0.6
			c-0.4,0-0.6,0.3-0.6,0.7v17.2c5.7,0.8,10.1,5.7,10.1,11.6l-1,13.1c0,0.5-0.5,1-1,1h-19.2c-0.5,0-1-0.4-1-1l-1-13.1
			c0-5.9,4.4-10.8,10.1-11.6v-17.2c0-0.4-0.3-0.7-0.6-0.7l-6.5-0.6C423.9,183.2,423.5,182.8,423.5,182.3z"/>
	</g>
	<g>
		<path class="st0" d="M334.9,280.4v18.1l9.2,5.3c0.3,0.2,0.2,0.7-0.2,0.7H322c-0.4,0-0.5-0.5-0.2-0.7l9.2-5.3v-18.1l-23.1-24.8
			c-0.5-0.5-0.1-1.4,0.6-1.4h48.8c0.7,0,1.1,0.9,0.6,1.4L334.9,280.4z"/>
		<polygon class="st1" points="350.2,258.5 335.1,275.6 330.8,275.6 315.7,258.5 		"/>
		<path class="st0" d="M91.1,313.3v163.1c0,5.7,4.6,10.3,10.3,10.3h329.5c5.7,0,10.3-4.6,10.3-10.3V313.3H91.1z"/>
		<path class="st1" d="M445.8,316.4H87.9c-1.7,0-3.1-1.4-3.1-3.1v-5c0-1.7,1.4-3.1,3.1-3.1h357.9c1.7,0,3.1,1.4,3.1,3.1v5
			C448.8,315,447.4,316.4,445.8,316.4z"/>
		<path class="st1" d="M347.3,362.8h-63.1c-1.3,0-2.4,1.1-2.4,2.4v6.7c0,1.3,1.1,2.4,2.4,2.4h9.2c-0.1,0.4-0.2,0.8-0.2,1.2
			c1.2,41.9-1.9,79.7-5.5,121.2c-0.1,1.5,0.9,2.9,2.3,3.1l2.8,0.4c1.4,0.2,2.8-0.9,2.9-2.5c0.8-8.4,1.6-16.6,2.3-24.8h35.7
			c0.7,8.2,1.4,16.4,2.3,24.8c0.2,1.6,1.5,2.7,2.9,2.5l2.8-0.4c1.4-0.2,2.4-1.6,2.3-3.1c-3.6-41.5-6.7-79.3-5.5-121.2
			c0-0.4-0.1-0.9-0.2-1.2h9.2c1.3,0,2.4-1.1,2.4-2.4v-6.7C349.7,363.9,348.6,362.8,347.3,362.8z M298.2,469.4
			c2-24.5,3.2-48.4,3.2-73.1h28.7c0,24.7,1.2,48.6,3.2,73.1H298.2z M330.4,375.1c-0.2,5.9-0.3,11.8-0.3,17.6h-28.7
			c0-5.8-0.1-11.7-0.3-17.6c0-0.3-0.1-0.6-0.2-0.9h29.6C330.5,374.5,330.4,374.8,330.4,375.1z"/>
		<path class="st1" d="M431.2,362.8h-63.1c-1.3,0-2.4,1.1-2.4,2.4v6.7c0,1.3,1.1,2.4,2.4,2.4h9.2c-0.1,0.4-0.2,0.8-0.2,1.2
			c1.2,41.9-1.9,79.7-5.5,121.2c-0.1,1.5,0.9,2.9,2.3,3.1l2.8,0.4c1.4,0.2,2.8-0.9,2.9-2.5c0.8-8.4,1.6-16.6,2.3-24.8h35.7
			c0.7,8.2,1.4,16.4,2.3,24.8c0.2,1.6,1.5,2.7,2.9,2.5l2.8-0.4c1.4-0.2,2.4-1.6,2.3-3.1c-3.6-41.5-6.7-79.3-5.5-121.2
			c0-0.4-0.1-0.9-0.2-1.2h9.2c1.3,0,2.4-1.1,2.4-2.4v-6.7C433.6,363.9,432.6,362.8,431.2,362.8z M382.1,469.4
			c2-24.5,3.2-48.4,3.2-73.1H414c0,24.7,1.2,48.6,3.2,73.1H382.1z M414.3,375.1c-0.2,5.9-0.3,11.8-0.3,17.6h-28.7
			c0-5.8-0.1-11.7-0.3-17.6c0-0.3-0.1-0.6-0.2-0.9h29.6C414.4,374.5,414.3,374.8,414.3,375.1z"/>
	</g>
</g>
</svg>
