<?xml version="1.0" encoding="utf-8"?>
<!-- Generator: Adobe Illustrator 26.5.0, SVG Export Plug-In . SVG Version: 6.00 Build 0)  -->
<svg version="1.1" id="Layer_1" xmlns="http://www.w3.org/2000/svg" xmlns:xlink="http://www.w3.org/1999/xlink" x="0px" y="0px"
	 viewBox="0 0 576 576" style="enable-background:new 0 0 576 576;" xml:space="preserve">
<style type="text/css">
	.st0{fill:#0B1723;}
</style>
<g id="NewGroupe16">
	<g id="NewGroup0-83">
		<g>
			<path class="st0" d="M393.7,275.5c-1.5-10.7-4.1-23.1-8.4-36c-2.8-8.2-6.6-15.7-11.7-22.2c-10.5-13.3-23-16.9-37.2-11.2
				c-2.8,1.1-5.5,2.8-8.2,4.5c-13.3,8.7-27.4,14.6-42.4,16.8c-21.8,3.2-42.7-1.2-62.9-11.2c-5.2-2.6-10.2-5.5-15.1-8.8
				c-8-5.4-20-4.1-26.7,2.8c-7.4,7.6-12.8,17.5-16.5,29.3c-4,12.5-5.7,25.6-6.2,38.9c0,0.2,0,0.3,0,0.5c-1.6,48,27.8,92,72.9,108.5
				c13.6,5,28.3,7.7,43.7,7.7c40.1,0,75.9-18.6,99.2-47.5C390.5,327.4,397.4,301.2,393.7,275.5L393.7,275.5z"/>
			<path class="st0" d="M114.9,207.8c3-3.7,5.7-6.9,8.7-10.5c0.5,14.8,1.7,29,3.6,43.2c2.4,17.5,5.8,34.7,11.1,51.5
				c4.4,14,10,27.4,18.2,39.4c0.5,0.7,0.9,1.3,1.4,2c0.1-0.7-0.1-1.2-0.2-1.7c-7.2-26.6-11.5-53.6-10.4-81.4
				c0.5-12.4,2.4-24.6,6.6-36.2c6.3-17.3,17-30.1,33.4-37.3c0.6-0.3,1.6-0.2,2,0.1c8.6,6.2,17.7,11.3,27.3,15.4
				c21.7,9.3,44.2,13.4,67.6,10.4c16.2-2.1,31.3-7.5,45.6-15.6c2.8-1.6,5.7-3.1,8.8-4.2c15.3-5.3,28.8-2,40,10.4
				c5.5,6,9.4,13.1,12.6,20.7c7,16.5,10.3,34.1,12.7,51.9c2.1,16.5,3.1,33.1,3.4,49.8c0,0.6,0.1,1.1,0.1,1.7c0.2,0,0.3,0,0.5,0.1
				c18.2-33.9,26.3-70.3,23.6-109.4c1.3,3,2.6,6,3.7,9.2c1.6,4.7,3.1,9.4,4.7,14.1c0-2.2,0-4.5,0-6.7c-0.1-0.5-0.2-1-0.3-1.5
				c-0.5-11.4-2-22.7-4.1-33.9c-3.9-20.8-10.1-40.8-20-59.3c-17.6-33-43.5-54.7-78.5-63.6c-3.8-1-7.6-1.7-11.4-2.5
				c12.6-4.6,25.3-7.6,38.7-4.6c-2.5-1.3-5-2.5-7.6-3.6c-18-7.6-36.5-12.5-55.9-12.9c-17.1-0.4-33.4,3.1-48.6,11.9
				c-0.2,0.1-0.4,0.1-0.6,0.2c-2.8-5.6-0.6-9.5,8.2-14.3c-0.1-0.1-0.2-0.1-0.2-0.1c-0.8,0-1.7,0-2.5,0c-10.7,0.6-21.3,2.2-31.7,5.3
				c-9.7,2.9-18.9,6.8-27.1,13.1c-11.1,8.6-17.9,19.9-19,34.7c-0.1,1.4-0.8,1.4-1.7,1.6c-26.9,5.2-54.3,24.7-61.9,63.9
				c-2.3,12-2.8,24-1.9,36.2C114,199.1,114.5,203.2,114.9,207.8L114.9,207.8z"/>
			<path class="st0" d="M283.8,494.5c-10.6,0-19.2-8.6-19.2-19.2c0-10.6,8.6-19.2,19.2-19.2c10.6,0,19.2,8.6,19.2,19.2
				C303,486,294.4,494.5,283.8,494.5L283.8,494.5z M389.3,535.7l0.4-121.4l-72.9,41.7c-6.6-11.4-19-19-33.1-19
				c-14.3,0-26.8,7.9-33.4,19.6l-73-42.5L177,535.5l73.2-41.9c6.5,12,19.1,20.1,33.7,20.1c14.5,0,27-8,33.6-19.8L389.3,535.7
				L389.3,535.7z"/>
		</g>
	</g>
</g>
</svg>
