<?xml version="1.0" encoding="utf-8"?>
<!-- Generator: Adobe Illustrator 26.5.0, SVG Export Plug-In . SVG Version: 6.00 Build 0)  -->
<svg version="1.1" id="Layer_1" xmlns="http://www.w3.org/2000/svg" xmlns:xlink="http://www.w3.org/1999/xlink" x="0px" y="0px"
	 viewBox="0 0 576 576" style="enable-background:new 0 0 576 576;" xml:space="preserve">
<style type="text/css">
	.st0{fill:none;stroke:#333333;stroke-width:3;stroke-linecap:round;stroke-linejoin:round;stroke-miterlimit:10;}
</style>
<g id="beer_bottle_and_pint_glass">
	<g>
		<g>
			<polyline class="st0" points="253.9,235.1 255.9,235.1 253.9,227.6 			"/>
		</g>
		<path class="st0" d="M255.9,223.8L255.9,223.8c0-2.1-1.8-3.8-4.1-3.8h-12.2c-2.2,0-4.1,1.7-4.1,3.8l0,0v3.8h20.3V223.8z"/>
		<line class="st0" x1="245.8" y1="235.1" x2="237.6" y2="235.1"/>
		<path class="st0" d="M253.9,235.1c0,0,4.1,20.8,4.1,28.3v1.9c0,1.9,1.6,4,4.1,7.6c2.2,3.3,4.1,5.7,4.1,11.3v49.1
			c0,2.1-1.8,3.8-4.1,3.8h-32.5c-2.2,0-4.1-1.7-4.1-3.8v-49.1c0-5.7,1.8-8,4.1-11.3c2.4-3.6,4.1-5.7,4.1-7.6v-1.9
			c0-7.6,4.1-28.3,4.1-28.3h-2l2-7.6"/>
		<line class="st0" x1="249.8" y1="265.3" x2="233.6" y2="265.3"/>
		<path class="st0" d="M233.6,329.5c0,0,4.1-3.8,12.2-3.8c8.1,0,12.2,3.8,12.2,3.8"/>
		<line class="st0" x1="225.4" y1="288" x2="266.1" y2="288"/>
		<line class="st0" x1="225.4" y1="318.2" x2="266.1" y2="318.2"/>
		<ellipse class="st0" cx="245.8" cy="303.1" rx="12.2" ry="15.1"/>
	</g>
	<g>
		<path class="st0" d="M316.9,254v20.8c0,3.1-2.7,5.7-6.1,5.7l0,0c-3.4,0-6.1-2.5-6.1-5.7v-8.9c0-8.1-9.4-8.1-20.9-8.1h-7.5"/>
		<path class="st0" d="M276.2,257.8l2,17c-1.1,2-2,5-2,7.6c0,3.6,1.9,7.1,4.1,9.4l4.1,45.3h36.6l4.1-45.3c2.1-2.4,4.1-5.9,4.1-9.4
			c0-2.5-0.9-5.5-2-7.6l2-17H325"/>
		<path class="st0" d="M321.9,325.8c0,0-3.4,3.8-14.8,3.8H297c-11.4,0-13.6-3.8-13.6-3.8"/>
		<path class="st0" d="M276.2,250.2c0,0-2-1.9-2-3.8c0-4.2,3.6-7.6,8.1-7.6c2.3,0,4.6,0.5,6.1,1.9c0-5.2,4.5-9.4,10.2-9.4h4.1"/>
		<path class="st0" d="M302.6,235.1c0-4.2,3.6-7.6,8.1-7.6c4.5,0,8.1,3.4,8.1,7.6c0,0.7-0.1,1.4-0.4,2.1c0.8-0.1,1.6-0.2,2.4-0.2
			c8.1,0,10.2,5.7,10.2,9.4c0,1.9-2,3.8-2,3.8"/>
		<line class="st0" x1="278.3" y1="274.8" x2="296.5" y2="274.8"/>
	</g>
</g>
</svg>
