<?xml version="1.0" encoding="utf-8"?>
<!-- Generator: Adobe Illustrator 26.5.0, SVG Export Plug-In . SVG Version: 6.00 Build 0)  -->
<svg version="1.1" id="Layer_1" xmlns="http://www.w3.org/2000/svg" xmlns:xlink="http://www.w3.org/1999/xlink" x="0px" y="0px"
	 viewBox="0 0 279 315" style="enable-background:new 0 0 279 315;" xml:space="preserve">
<style type="text/css">
	.st0{fill:#B2B4B7;}
</style>
<g>
	<path class="st0" d="M61.83,310.99H50.82v-11.01c0-4.9,1.59-9.06,4.99-13.07c10.29-12.13,16.65-29.31,17.01-45.96
		c0.18-8.56,0.4-16.28,1.28-24.08l4.2-37.29c0,0,0.04-0.44,0.04-0.7c0-3.03-2.47-5.49-5.5-5.49c-2.55,0-4.74,1.74-5.33,4.23
		l-12.19,50.89l-10.71-2.57l12.19-50.87c1.77-7.46,8.37-12.68,16.04-12.68c9.11,0,16.51,7.41,16.51,16.51c0,0.61-0.1,1.78-0.1,1.78
		l-4.21,37.44c-0.83,7.33-1.04,14.79-1.21,23.08c-0.42,19.38-7.57,38.64-19.62,52.85c-1.73,2.04-2.38,3.65-2.38,5.94V310.99z"/>
	<path class="st0" d="M17.8,310.99H6.79V184.4c0-12.43,6.31-23.5,17.31-30.38l29.31-18.32l5.84,9.33l-29.31,18.32
		c-7.83,4.89-12.14,12.37-12.14,21.05V310.99z"/>
	<path class="st0" d="M226.95,310.99h-11.01v-11.01c0-2.3-0.64-3.9-2.38-5.94c-12.05-14.21-19.2-33.47-19.62-52.85
		c-0.17-8.29-0.39-15.75-1.21-23.08l-4.2-37.3c-0.01-0.13-0.11-1.31-0.11-1.91c0-9.1,7.41-16.51,16.51-16.51
		c7.67,0,14.26,5.22,16.04,12.7l12.19,50.86l-10.71,2.57l-12.19-50.87c-0.59-2.5-2.78-4.25-5.33-4.25c-3.04,0-5.5,2.47-5.5,5.5
		c0.01,0.3,0.05,0.81,0.05,0.81l4.19,37.17c0.88,7.8,1.1,15.52,1.28,24.08c0.36,16.65,6.72,33.83,17.01,45.97
		c3.4,4,4.99,8.16,4.99,13.06V310.99z"/>
	<path class="st0" d="M270.98,310.99h-11.01V184.4c0-8.68-4.31-16.16-12.14-21.05l-29.31-18.32l5.84-9.33l29.31,18.32
		c11,6.87,17.31,17.95,17.31,30.38V310.99z"/>
	<rect x="77.56" y="244.95" class="st0" width="122.65" height="11.01"/>
	<polygon class="st0" points="226.95,200.68 215.94,200.68 215.94,57.82 61.83,57.82 61.83,200.68 50.82,200.68 50.82,46.81 
		226.95,46.81 	"/>
	<rect x="100.36" y="90.84" class="st0" width="77.05" height="11.01"/>
	<rect x="89.35" y="118.36" class="st0" width="99.07" height="11.01"/>
	<rect x="133.38" y="2.78" class="st0" width="11.01" height="27.52"/>
	
		<rect x="192.77" y="19.29" transform="matrix(0.7071 -0.7071 0.7071 0.7071 42.493 152.1707)" class="st0" width="24.32" height="11.01"/>
	
		<rect x="67.31" y="12.4" transform="matrix(0.7071 -0.7071 0.7071 0.7071 3.812 58.7446)" class="st0" width="11.01" height="24.75"/>
	<path class="st0" d="M138.88,222.93c-15.17,0-27.52-12.35-27.52-27.52c0-15.17,12.35-27.52,27.52-27.52s27.52,12.35,27.52,27.52
		C166.4,210.58,154.06,222.93,138.88,222.93z M138.88,178.9c-9.1,0-16.51,7.41-16.51,16.51c0,9.11,7.41,16.51,16.51,16.51
		c9.11,0,16.51-7.41,16.51-16.51C155.4,186.31,147.99,178.9,138.88,178.9z"/>
	<rect x="133.38" y="272.47" class="st0" width="11.01" height="27.52"/>
	
		<rect x="177.36" y="265.59" transform="matrix(0.7071 -0.7071 0.7071 0.7071 -142.9559 210.6996)" class="st0" width="11.01" height="24.65"/>
	
		<rect x="82.58" y="272.41" transform="matrix(0.7071 -0.7071 0.7071 0.7071 -168.7164 148.5124)" class="st0" width="24.65" height="11.01"/>
</g>
</svg>
