<?xml version="1.0" encoding="utf-8"?>
<!-- Generator: Adobe Illustrator 26.5.0, SVG Export Plug-In . SVG Version: 6.00 Build 0)  -->
<svg version="1.1" xmlns="http://www.w3.org/2000/svg" xmlns:xlink="http://www.w3.org/1999/xlink" x="0px" y="0px"
	 viewBox="0 0 4000 2656.37" style="enable-background:new 0 0 4000 2656.37;" xml:space="preserve">
<style type="text/css">
	.st0{fill:#D1D3D4;}
</style>
<g id="background">
	<g>
		<path class="st0" d="M3694.1,174.12H898.99c-24.11,0-43.67,19.56-43.67,43.67v538.64H374.91c-120.42,0-218.37,97.95-218.37,218.37
			v1106.4c0,216.75,176.32,393.06,393.06,393.06h2795.11c216.75,0,393.06-176.32,393.06-393.06V217.79
			C3737.77,193.68,3718.21,174.12,3694.1,174.12z M549.6,2386.91c-168.58,0-305.71-137.13-305.71-305.72V974.8
			c0-72.25,58.77-131.02,131.02-131.02s131.02,58.77,131.02,131.02v989.93c0,24.11,19.56,43.67,43.67,43.67h305.71v72.79
			C855.32,2249.78,718.18,2386.91,549.6,2386.91z M3650.43,2081.2c0,168.58-137.13,305.72-305.71,305.72H796.4
			c89.17-72.11,146.26-182.37,146.26-305.72V800.11V261.47h2707.76V2081.2z"/>
		<path class="st0" d="M1190.15,1076.71c24.11,0,43.67-19.56,43.67-43.67V608.38l268.27,447.11c8.02,13.39,22.38,21.21,37.45,21.21
			c3.87,0,7.79-0.51,11.66-1.59c18.91-5.23,32.02-22.46,32.02-42.08V450.72c0-24.11-19.56-43.67-43.67-43.67
			s-43.67,19.56-43.67,43.67v424.65l-268.27-447.11c-10.07-16.83-30.2-24.88-49.1-19.62c-18.91,5.23-32.02,22.46-32.02,42.08v582.31
			C1146.47,1057.14,1166.04,1076.71,1190.15,1076.71z"/>
		<path class="st0" d="M1772.46,1076.71h291.16c24.11,0,43.67-19.56,43.67-43.67s-19.56-43.67-43.67-43.67h-247.48V785.55h247.48
			c24.11,0,43.67-19.56,43.67-43.67c0-24.11-19.56-43.67-43.67-43.67h-247.48V494.39h247.48c24.11,0,43.67-19.56,43.67-43.67
			s-19.56-43.67-43.67-43.67h-291.16c-24.11,0-43.67,19.56-43.67,43.67v291.16v291.16
			C1728.79,1057.14,1748.35,1076.71,1772.46,1076.71z"/>
		<path class="st0" d="M2343.74,1075.29c17.69,4.61,36.31-2.25,46.8-17.2l168.04-240.06l168.04,240.06
			c8.3,11.86,21.75,18.62,35.77,18.62c3.67,0,7.36-0.45,11.03-1.42c17.69-4.61,30.59-19.73,32.41-37.9l58.23-582.31
			c2.42-24-15.1-45.41-39.09-47.8c-24.25-3.16-45.41,15.1-47.8,39.1l-46.52,465.17l-136.31-194.71c-16.32-23.32-55.22-23.32-71.54,0
			l-136.31,194.71l-46.52-465.17c-2.39-24-23.63-42.14-47.8-39.1c-24,2.39-41.51,23.8-39.1,47.8l58.23,582.31
			C2313.15,1055.55,2326.06,1070.68,2343.74,1075.29z"/>
		<path class="st0" d="M3257.36,989.36h-87.35c-40.15,0-72.79-32.64-72.79-72.79c0-24.11-19.56-43.67-43.67-43.67
			c-24.11,0-43.67,19.56-43.67,43.67c0,88.31,71.82,160.14,160.14,160.14h87.35c104.35,0,189.25-84.9,189.25-189.25
			c0-104.35-84.9-189.25-189.25-189.25h-58.23c-56.18,0-101.91-45.72-101.91-101.91c0-56.18,45.72-101.9,101.91-101.9h87.35
			c40.15,0,72.79,32.64,72.79,72.79c0,24.11,19.56,43.67,43.67,43.67c24.11,0,43.67-19.56,43.67-43.67
			c0-88.31-71.82-160.14-160.14-160.14h-87.35c-104.35,0-189.25,84.9-189.25,189.25s84.9,189.25,189.25,189.25h58.23
			c56.18,0,101.91,45.72,101.91,101.91C3359.27,943.64,3313.55,989.36,3257.36,989.36z"/>
		<path class="st0" d="M1190.15,1309.63h2212.79c24.11,0,43.67-19.56,43.67-43.67s-19.56-43.67-43.67-43.67H1190.15
			c-24.11,0-43.67,19.56-43.67,43.67S1166.04,1309.63,1190.15,1309.63z"/>
		<path class="st0" d="M1190.15,1542.56h1164.63c24.11,0,43.67-19.56,43.67-43.67s-19.56-43.67-43.67-43.67H1190.15
			c-24.11,0-43.67,19.56-43.67,43.67S1166.04,1542.56,1190.15,1542.56z"/>
		<path class="st0" d="M1190.15,1775.48h407.62c24.11,0,43.67-19.56,43.67-43.67s-19.56-43.67-43.67-43.67h-407.62
			c-24.11,0-43.67,19.56-43.67,43.67S1166.04,1775.48,1190.15,1775.48z"/>
		<path class="st0" d="M1190.15,2008.41h407.62c24.11,0,43.67-19.56,43.67-43.67s-19.56-43.67-43.67-43.67h-407.62
			c-24.11,0-43.67,19.56-43.67,43.67S1166.04,2008.41,1190.15,2008.41z"/>
		<path class="st0" d="M1190.15,2241.34h407.62c24.11,0,43.67-19.56,43.67-43.67c0-24.11-19.56-43.67-43.67-43.67h-407.62
			c-24.11,0-43.67,19.56-43.67,43.67C1146.47,2221.77,1166.04,2241.34,1190.15,2241.34z"/>
		<path class="st0" d="M2354.78,1688.14h-524.08c-24.11,0-43.67,19.56-43.67,43.67s19.56,43.67,43.67,43.67h524.08
			c24.11,0,43.67-19.56,43.67-43.67S2378.89,1688.14,2354.78,1688.14z"/>
		<path class="st0" d="M2354.78,1921.06h-524.08c-24.11,0-43.67,19.56-43.67,43.67s19.56,43.67,43.67,43.67h524.08
			c24.11,0,43.67-19.56,43.67-43.67S2378.89,1921.06,2354.78,1921.06z"/>
		<path class="st0" d="M2354.78,2153.99h-524.08c-24.11,0-43.67,19.56-43.67,43.67c0,24.11,19.56,43.67,43.67,43.67h524.08
			c24.11,0,43.67-19.56,43.67-43.67C2398.45,2173.55,2378.89,2153.99,2354.78,2153.99z"/>
		<path class="st0" d="M3402.94,1455.21H2587.7c-24.11,0-43.67,19.56-43.67,43.67v698.78c0,24.11,19.56,43.67,43.67,43.67h815.24
			c24.11,0,43.67-19.56,43.67-43.67v-698.78C3446.62,1474.77,3427.05,1455.21,3402.94,1455.21z"/>
	</g>
</g>
<g id="Layer_2">
</g>
</svg>
