<?xml version="1.0" encoding="utf-8"?>
<!-- Generator: Adobe Illustrator 26.5.0, SVG Export Plug-In . SVG Version: 6.00 Build 0)  -->
<svg version="1.1" id="Layer_1" xmlns="http://www.w3.org/2000/svg" xmlns:xlink="http://www.w3.org/1999/xlink" x="0px" y="0px"
	 viewBox="0 0 144 181" style="enable-background:new 0 0 144 181;" xml:space="preserve">
<style type="text/css">
	.st0{fill:none;stroke:#CFD1D2;stroke-width:8;stroke-linecap:round;stroke-linejoin:round;stroke-miterlimit:10;}
</style>
<path class="st0" d="M40.9,21.3h73.5c3.4,0,6.2,2.8,6.2,6.2v125c0,3.4-2.8,6.2-6.2,6.2H24.7c-3.4,0-6.2-2.8-6.2-6.2V43.7
	c0-1.6,0.7-3.2,1.8-4.4l16.2-16.2C37.7,21.9,39.3,21.3,40.9,21.3z"/>
<path class="st0" d="M19.9,41.1h17.2c1.5,0,2.6-1.2,2.6-2.6V21.4"/>
<line class="st0" x1="72.8" y1="56.5" x2="102.6" y2="56.5"/>
<line class="st0" x1="36.6" y1="56.5" x2="55.7" y2="56.5"/>
<line class="st0" x1="93.7" y1="70.1" x2="102.6" y2="70.1"/>
<line class="st0" x1="36.6" y1="70.1" x2="77.3" y2="70.1"/>
<line class="st0" x1="36.6" y1="111.1" x2="79.6" y2="111.1"/>
<line class="st0" x1="64.2" y1="97.4" x2="102.6" y2="97.4"/>
<line class="st0" x1="36.6" y1="97.4" x2="47.8" y2="97.4"/>
<line class="st0" x1="36.6" y1="83.8" x2="102.6" y2="83.8"/>
</svg>
