<?xml version="1.0" encoding="utf-8"?>
<!-- Generator: Adobe Illustrator 26.5.0, SVG Export Plug-In . SVG Version: 6.00 Build 0)  -->
<svg version="1.1" id="Layer_1" xmlns="http://www.w3.org/2000/svg" xmlns:xlink="http://www.w3.org/1999/xlink" x="0px" y="0px"
	 viewBox="0 0 576 576" style="enable-background:new 0 0 576 576;" xml:space="preserve">
<style type="text/css">
	.st0{fill:none;stroke:#1E1E1E;stroke-width:6;stroke-linecap:round;stroke-linejoin:round;stroke-miterlimit:10;}
</style>
<path class="st0" d="M243.9,184.3h73.5c3.4,0,6.2,2.8,6.2,6.2v125c0,3.4-2.8,6.2-6.2,6.2h-89.7c-3.4,0-6.2-2.8-6.2-6.2V206.7
	c0-1.6,0.7-3.2,1.8-4.4l16.2-16.2C240.7,184.9,242.3,184.3,243.9,184.3z"/>
<path class="st0" d="M222.9,204.1h17.2c1.5,0,2.6-1.2,2.6-2.6v-17.1"/>
<line class="st0" x1="275.8" y1="219.5" x2="305.6" y2="219.5"/>
<line class="st0" x1="239.6" y1="219.5" x2="258.7" y2="219.5"/>
<line class="st0" x1="296.7" y1="233.1" x2="305.6" y2="233.1"/>
<line class="st0" x1="239.6" y1="233.1" x2="280.3" y2="233.1"/>
<line class="st0" x1="239.6" y1="274.1" x2="282.6" y2="274.1"/>
<line class="st0" x1="267.2" y1="260.4" x2="305.6" y2="260.4"/>
<line class="st0" x1="239.6" y1="260.4" x2="250.8" y2="260.4"/>
<line class="st0" x1="239.6" y1="246.8" x2="305.6" y2="246.8"/>
</svg>
