<?xml version="1.0" encoding="utf-8"?>
<!-- Generator: Adobe Illustrator 26.5.0, SVG Export Plug-In . SVG Version: 6.00 Build 0)  -->
<svg version="1.1" id="Layer_1" xmlns="http://www.w3.org/2000/svg" xmlns:xlink="http://www.w3.org/1999/xlink" x="0px" y="0px"
	 viewBox="0 0 576 576" style="enable-background:new 0 0 576 576;" xml:space="preserve">
<style type="text/css">
	.st0{fill:#091B26;}
	.st1{fill:#5BC6D0;}
</style>
<g>
	<path class="st0" d="M348.4,237.8c-8.4-20.5-22.6-46.7-43.1-55.4c-2.3-1-4.7-1.3-7-1.2c-2.7-1.4-5.9-2.2-9.6-2.2h-23.8
		c-25.1,0-23.6,35.2-23.6,55L220,347.4c0,9.6,6.6,15.8,15.7,19.5v121.8c0,10.5,8.5,19,19,19c10.5,0,19-8.5,19-19V372.2h6.6v116.4
		c0,10.5,8.5,19,19,19c10.5,0,19-8.5,19-19V366.9c9.1-3.8,15.7-9.9,15.7-19.5L313,235.6c2.1,4.1,4.3,8.8,6.5,14
		c8,19.5,13.6,42.5,14.4,58.4c0.4,8.4,7.3,14.9,15.6,14.9c0.3,0,0.5,0,0.8,0c8.6-0.4,15.3-7.8,14.9-16.4
		C364.2,287,357.8,260.7,348.4,237.8z"/>
	<path class="st0" d="M327.2,168.8c-8.7-7.2-11.4-19.8-12.2-29c0.4-2.3,0.7-4.8,0.7-7.2c0-21.4-17.3-38.7-38.7-38.7
		s-38.7,17.3-38.7,38.7c0,2.5,0.2,4.9,0.7,7.2c-0.8,9.2-3.5,21.8-12.2,29c12.1,1.3,22.7,2.1,31.1-2.6c5.7,3.2,12.2,5.1,19.2,5.1
		s13.5-1.9,19.2-5.1C304.5,170.8,315.1,170.1,327.2,168.8z"/>
	<g>
		<path class="st1" d="M270.9,333.5l-58.5-21.2c-1-0.4-1.5-1.4-1.1-2.4l31.7-87.4c0.4-1,1.4-1.5,2.4-1.1l58.5,21.2
			c1,0.4,1.5,1.4,1.1,2.4l-31.7,87.4C272.9,333.4,271.8,333.9,270.9,333.5z"/>
		<path class="st0" d="M270.9,334.1c-0.4,0-0.9-0.1-1.3-0.2L213,313.4c-2-0.7-3-2.9-2.3-4.9l30.9-85.4c0.3-1,1-1.7,2-2.1
			c0.9-0.4,1.9-0.5,2.9-0.1l56.5,20.5c2,0.7,3,2.9,2.3,4.9l-30.9,85.4c-0.3,1-1,1.7-2,2.1C272,334,271.4,334.1,270.9,334.1z
			 M245.3,222.4c-0.3,0-0.6,0.1-0.9,0.2c-0.5,0.2-0.9,0.7-1.1,1.2l-30.9,85.4c-0.4,1.1,0.2,2.3,1.3,2.7l56.5,20.5
			c0.5,0.2,1.1,0.2,1.6-0.1c0.5-0.2,0.9-0.7,1.1-1.2l30.9-85.4c0.4-1.1-0.2-2.3-1.3-2.7L246,222.5
			C245.8,222.4,245.5,222.4,245.3,222.4z"/>
		<path class="st0" d="M258.5,245.3c-0.3-0.2-0.7-0.2-1,0l-5.3,3.4l-1.8-6c-0.1-0.3-0.4-0.6-0.8-0.6c-0.4,0-0.7,0.2-0.8,0.5l-4,11.1
			c-0.2,0.4,0.1,0.9,0.5,1.1c0.4,0.2,0.9-0.1,1.1-0.5l3.2-8.8l1.4,4.7c0.1,0.2,0.3,0.4,0.5,0.5c0.2,0.1,0.5,0.1,0.7-0.1l4.1-2.7
			l-3.2,8.8c-0.2,0.4,0.1,0.9,0.5,1.1c0.1,0,0.2,0,0.3,0c0.3,0,0.7-0.2,0.8-0.5l4-11.1C258.9,245.9,258.8,245.6,258.5,245.3z"/>
		<path class="st0" d="M263,259.5l-4.8-1.7l1.5-4l2,0.7c0.1,0,0.2,0,0.3,0c0.3,0,0.7-0.2,0.8-0.5c0.2-0.4-0.1-0.9-0.5-1.1l-2-0.7
			l1.5-4l4.8,1.7c0.4,0.2,0.9-0.1,1.1-0.5c0.2-0.4-0.1-0.9-0.5-1.1l-5.6-2c-0.4-0.2-0.9,0.1-1.1,0.5l-2,5.6c0,0,0,0,0,0s0,0,0,0
			l-2,5.6c-0.2,0.4,0.1,0.9,0.5,1.1l5.6,2c0.1,0,0.2,0,0.3,0c0.3,0,0.7-0.2,0.8-0.5C263.6,260.1,263.4,259.6,263,259.5z"/>
		<path class="st0" d="M275.5,251.5c-0.4-0.2-0.9,0.1-1.1,0.5l-2.8,7.8l-1.1-9.6c0-0.4-0.3-0.7-0.7-0.7c-0.4,0-0.7,0.2-0.9,0.5
			l-4,11.1c-0.2,0.4,0.1,0.9,0.5,1.1c0.4,0.2,0.9-0.1,1.1-0.5l2.8-7.8l1.1,9.6c0,0.4,0.3,0.7,0.7,0.7c0,0,0.1,0,0.1,0
			c0.3,0,0.7-0.2,0.8-0.5l4-11.1C276.2,252.1,275.9,251.6,275.5,251.5z"/>
		<path class="st0" d="M286,255.3c-0.4-0.2-0.9,0.1-1.1,0.5l-3,8.2c-0.2,0.6-0.6,1-1.2,1.3c-0.6,0.3-1.3,0.3-1.9,0
			c-0.6-0.2-1.1-0.7-1.4-1.3c-0.3-0.6-0.3-1.2-0.1-1.8l3-8.2c0.2-0.4-0.1-0.9-0.5-1.1c-0.4-0.2-0.9,0.1-1.1,0.5l-3,8.2
			c-0.4,1-0.3,2.1,0.2,3.1c0.5,1,1.3,1.7,2.4,2.1c0.5,0.2,1,0.3,1.5,0.3c0.6,0,1.1-0.1,1.7-0.3c1-0.4,1.8-1.2,2.1-2.2l3-8.2
			C286.6,255.9,286.4,255.4,286,255.3z"/>
	</g>
	<path class="st0" d="M233.2,306.9c-2.1,0-4.2-0.4-6.2-1.3c-24.9-10.7-38.6-30.4-37.4-54.1c0.7-14.6,7.1-29.8,18.1-42.8
		c10.6-12.6,24.4-22.1,39-26.8c8.2-2.6,17.1,1.9,19.7,10.2c2.6,8.2-1.9,17.1-10.2,19.7c-18.3,5.8-34.5,24.8-35.3,41.3
		c-0.2,3.8-0.8,15.5,18.5,23.8c7.9,3.4,11.6,12.6,8.2,20.6C245.1,303.3,239.3,306.9,233.2,306.9z"/>
	<path class="st1" d="M281.6,194.6c0-0.1,0.1-0.3,0.1-0.5v-1c3-0.6,6.9-1.5,10-2.5c4.9-1.6,7.3-6.3,7.7-8.6c0.1-0.7-0.4-1.4-1.2-1.4
		h-5.4c0,0-2.2,4.4-7.8,6.7c-1.5,0.6-2.6,1-3.5,1.2c-0.1-0.2-0.2-0.3-0.3-0.4c0,0,0,0,0,0c-0.1-0.1-0.3-0.3-0.4-0.4c0,0,0,0,0,0
		c-0.1-0.1-0.3-0.2-0.4-0.2c0,0-0.1,0-0.1,0c-0.2,0-0.3-0.1-0.5-0.1h-7.1c-0.2,0-0.4,0-0.5,0.1c0,0-0.1,0-0.1,0
		c-0.2,0.1-0.3,0.1-0.4,0.2c0,0,0,0,0,0c-0.1,0.1-0.3,0.2-0.4,0.4c0,0,0,0,0,0c-0.1,0.1-0.2,0.3-0.3,0.4c-0.9-0.2-2-0.6-3.5-1.2
		c-5.5-2.2-7.8-6.7-7.8-6.7h-5.4c-0.7,0-1.3,0.6-1.2,1.4c0.3,2.3,2.7,7,7.7,8.6c3.1,1,7,1.9,10,2.5v1c0,0.2,0,0.3,0.1,0.5
		c0,0,0,0,0,0c0,0.1,0.1,0.3,0.2,0.4h-0.2c0,0-2.2-4.4-6.7,5.5c-4.4,10-6.7,20-6.7,22.2c0,2.2,4.3-5.4,8.9-11.1
		c1-1.3,1.1-8.9,5.5-11.1c2.3-1.2,3.5-3.2,4.1-4.4h0.8c0.5,1.3,1.7,3.3,4.1,4.4c4.4,2.2,4.5,9.8,5.5,11.1c4.6,5.7,8.9,13.3,8.9,11.1
		c0-2.2-2.2-12.2-6.7-22.2c-4.4-10-6.7-5.5-6.7-5.5h-0.2C281.5,194.9,281.6,194.8,281.6,194.6C281.6,194.6,281.6,194.6,281.6,194.6z
		"/>
</g>
</svg>
