<?xml version="1.0" encoding="utf-8"?>
<!-- Generator: Adobe Illustrator 26.5.0, SVG Export Plug-In . SVG Version: 6.00 Build 0)  -->
<svg version="1.1" id="Layer_1" xmlns="http://www.w3.org/2000/svg" xmlns:xlink="http://www.w3.org/1999/xlink" x="0px" y="0px"
	 viewBox="0 0 576 576" style="enable-background:new 0 0 576 576;" xml:space="preserve">
<style type="text/css">
	.st0{fill:#091B26;}
	.st1{fill:#5BC6D0;}
</style>
<g>
	<path class="st0" d="M392.7,166c-9.1-2.2-18.3,3.5-20.4,12.6c-5.6,23.5-12.7,27.4-14.8,28.1c-3.9,1.2-11-1.1-19.6-6.5
		c-10.4-6.5-21.1-16.1-30.5-24.6c-2.3-2-4.4-4-6.5-5.8c-3.5-3.1-7.9-4.4-12.2-4.2c-2.9-1.5-6.3-2.4-10.4-2.4h-25.8
		c-4.1,0-7.5,0.9-10.4,2.4c-2.4-0.1-4.9,0.3-7.3,1.3c-22.2,9.4-37.6,37.8-46.7,60c-10.1,24.8-17.1,53.3-18.1,74.4
		c-0.5,9.4,6.8,17.3,16.1,17.8c0.3,0,0.6,0,0.8,0c9,0,16.5-7.1,16.9-16.1c0.8-17.3,7-42.1,15.6-63.3c2.3-5.7,4.7-10.8,7-15.2
		l-22.6,121c0,10.4,7.2,17.1,17,21.1v131.9c0,11.3,9.2,20.5,20.5,20.5c11.3,0,20.5-9.2,20.5-20.5V372.5h7.1v126.1
		c0,11.3,9.2,20.5,20.5,20.5s20.5-9.2,20.5-20.5V366.7c9.8-4.1,17-10.7,17-21.1l-22.9-122.8c0-1.6,0-3.3,0-5.1
		c15.5,12.4,33.2,23.3,50.9,23.3c4.1,0,8.3-0.6,12.4-1.9c18.3-5.7,30.6-22.9,37.7-52.6C407.5,177.4,401.8,168.2,392.7,166z"/>
	<g>
		<path class="st1" d="M277.2,287.9c-1,0-2-0.6-2.4-1.5c-0.6-1.3,0-2.9,1.3-3.6l26.8-12.5c1.3-0.6,2.9,0,3.6,1.3
			c0.6,1.3,0,2.9-1.3,3.6l-26.8,12.5C278,287.8,277.6,287.9,277.2,287.9z"/>
		<path class="st1" d="M279,162.9c-4.5,0-13.4,0-13.4,0s-8.9,0-13.4,0c-4.5,0-10.7,2.7-10.7,2.7c4.5,32.1,11.6,50.9,24.1,70.5
			c12.5-19.6,19.6-38.4,24.1-70.5C289.7,165.6,283.5,162.9,279,162.9z"/>
	</g>
	<path class="st0" d="M320.1,152.2c-9.4-7.8-12.4-21.5-13.2-31.4c0.5-2.5,0.7-5.2,0.7-7.8c0-23.2-18.8-42-42-42s-42,18.8-42,42
		c0,2.7,0.3,5.3,0.7,7.8c-0.9,10-3.8,23.6-13.2,31.4c13.1,1.4,24.6,2.2,33.7-2.8c6.1,3.5,13.2,5.5,20.8,5.5c7.6,0,14.6-2,20.8-5.5
		C295.4,154.4,307,153.6,320.1,152.2z"/>
	<path class="st0" d="M453.2,176.3H333.4c-1.4,0-2.6-1.2-2.6-2.6v-5.3c0-1.4,1.2-2.6,2.6-2.6h119.8c1.4,0,2.6,1.2,2.6,2.6v5.3
		C455.8,175.1,454.6,176.3,453.2,176.3z"/>
	<g>
		<path class="st0" d="M378.3,141.2v18.6l9.4,5.4c0.3,0.2,0.2,0.7-0.2,0.7h-22.4c-0.4,0-0.5-0.5-0.2-0.7l9.4-5.4v-18.6l-23.7-25.4
			c-0.5-0.6-0.1-1.5,0.6-1.5h50c0.8,0,1.2,0.9,0.6,1.5L378.3,141.2z"/>
		<polygon class="st1" points="394,118.8 378.5,136.3 374.1,136.3 358.6,118.8 		"/>
	</g>
	<g>
		<path class="st0" d="M413.3,139.5v20.3l10.3,5.9c0.4,0.2,0.2,0.8-0.2,0.8h-24.4c-0.4,0-0.6-0.6-0.2-0.8l10.3-5.9v-20.3l-25.8-27.7
			c-0.6-0.6-0.1-1.6,0.7-1.6h54.5c0.8,0,1.3,1,0.7,1.6L413.3,139.5z"/>
		<polygon class="st1" points="430.4,115.1 413.5,134.2 408.7,134.2 391.8,115.1 		"/>
	</g>
	<g>
		<path class="st0" d="M279.5,163.9l-10.4,4.9c-0.1-0.8-0.8-1.5-1.7-1.5h-3.8c-0.8,0-1.5,0.6-1.7,1.5l-10.4-4.9
			c-0.6-0.3-1.3,0.3-1.3,1l0.8,14.3c0,0.8,0.8,1.2,1.4,0.8l9.6-6.3c0.3,0.5,0.8,0.8,1.4,0.8h3.8c0.6,0,1.1-0.3,1.4-0.8l9.6,6.3
			c0.6,0.4,1.4,0,1.4-0.8l0.8-14.3C280.8,164.1,280.1,163.6,279.5,163.9z"/>
		<circle class="st0" cx="265.6" cy="192.4" r="4.5"/>
		<circle class="st0" cx="265.6" cy="211.1" r="4.5"/>
	</g>
</g>
</svg>
