<?xml version="1.0" encoding="utf-8"?>
<!-- Generator: Adobe Illustrator 26.5.0, SVG Export Plug-In . SVG Version: 6.00 Build 0)  -->
<svg version="1.1" id="Layer_1" xmlns="http://www.w3.org/2000/svg" xmlns:xlink="http://www.w3.org/1999/xlink" x="0px" y="0px"
	 viewBox="0 0 576 576" style="enable-background:new 0 0 576 576;" xml:space="preserve">
<style type="text/css">
	.st0{fill:#091B26;}
	.st1{fill:#5BC6D0;}
</style>
<g>
	<g>
		<circle class="st0" cx="269" cy="131.8" r="40"/>
		<path class="st0" d="M390.2,182.4c-8.7-2.1-17.4,3.3-19.5,12c-5.3,22.4-12.1,26.1-14.1,26.7c-3.7,1.2-10.5-1.1-18.6-6.2
			c-9.9-6.2-20.1-15.4-29.1-23.4c-2.2-1.9-4.2-3.8-6.2-5.5c-2.2-1.9-4.7-3.1-7.4-3.7c-4.1-1.9-8.7-2.9-13.5-2.9h-25.5
			c-18.2,0-33,14.8-33,33v111c0,5.1,1.1,9.9,3.2,14.1v161.7c0,10.8,8.8,19.6,19.6,19.6s19.6-8.8,19.6-19.6V356.4h6.8v142.9
			c0,10.8,8.8,19.6,19.6,19.6c10.8,0,19.6-8.8,19.6-19.6V337.5c2-4.3,3.2-9.1,3.2-14.1v-85.1c12.5,8.8,26,15.5,39.7,15.5
			c3.9,0,7.9-0.6,11.8-1.8c17.4-5.4,29.1-21.8,35.9-50.1C404.2,193.2,398.9,184.5,390.2,182.4z"/>
		<path class="st0" d="M246.1,296.8c-0.2,0-0.3,0-0.5,0c-58.4-1.6-65.7-32-66.1-45c-0.5-15.1,7.1-31.9,20.8-46.1
			c13.2-13.7,29.3-22.4,44.3-23.7c8.9-0.8,16.7,5.8,17.5,14.7c0.8,8.9-5.8,16.7-14.7,17.5c-15.1,1.3-36,22.9-35.6,36.6
			c0.3,9.3,18.1,13.2,34.7,13.6c8.9,0.3,16,7.7,15.7,16.6C262,289.9,254.8,296.8,246.1,296.8z"/>
		<path class="st1" d="M219.7,257.7c0,0-10.2,0-13.6,15.3c-2.7,12.3-1.1,42.7-0.3,54.2c0.2,2.5,2.3,4.5,4.8,4.5h24.2
			c2.8,0,5.1-2.5,4.8-5.3c-1.2-12-3.8-40.9-2-49.2c2.6-11.9,11.1-15.3,11.1-15.3L219.7,257.7z"/>
		<path class="st1" d="M246.6,262.4L246.6,262.4c-8.6-0.2-17.3-1.4-23.5-3.6v2.2c6.6,2.2,15.1,3.2,23.4,3.5
			c8.9,0.3,16,7.7,15.7,16.6c-0.2,8.8-7.4,15.7-16.1,15.7c-0.2,0-0.3,0-0.5,0c-8.6-0.2-16-1.1-22.5-2.4v2.2c6.5,1.3,14,2.1,22.5,2.4
			c0.2,0,0.3,0,0.5,0c10,0,18-7.8,18.3-17.8C264.6,271.1,256.7,262.6,246.6,262.4z"/>
		<g>
			<path class="st1" d="M289.5,180.1c0,0-3.5-0.9-7.7-0.9h-25.5c-4.2,0-7.6,0.8-7.7,0.9l-0.1,0l0,0.1c4.2,24.6,11,46.4,20.4,64.7
				l0.1,0.2l0.1-0.2c9.4-18.3,16.3-40.1,20.4-64.7L289.5,180.1L289.5,180.1z"/>
			<circle class="st1" cx="268.6" cy="270.4" r="4.3"/>
			<circle class="st1" cx="268.6" cy="294" r="4.3"/>
			<path class="st1" d="M302.6,255.5h-17.9c-1.4,0-2.6-1.1-2.6-2.6c0-1.4,1.1-2.6,2.6-2.6h17.9c1.4,0,2.6,1.1,2.6,2.6
				C305.2,254.4,304,255.5,302.6,255.5z"/>
		</g>
		<path class="st0" d="M282.3,180.3l-9.9,4.7c-0.1-0.8-0.8-1.4-1.6-1.4h-3.6c-0.8,0-1.5,0.6-1.6,1.4l-9.9-4.7
			c-0.6-0.3-1.2,0.2-1.2,1l0.8,13.7c0,0.7,0.8,1.1,1.3,0.8l9.2-6c0.3,0.5,0.8,0.8,1.4,0.8h3.6c0.6,0,1.1-0.3,1.4-0.8l9.2,6
			c0.6,0.4,1.3,0,1.3-0.8l0.8-13.7C283.5,180.6,282.9,180.1,282.3,180.3z"/>
	</g>
	<g>
		<g>
			<path class="st0" d="M380.8,120.8v57.3c0,2.4-1.9,4.3-4.3,4.3h-20.3c-2.4,0-4.3-1.9-4.3-4.3v-57.3c0-1.4,0.5-2.8,1.4-3.8l6.9-8
				c0.9-1.1,1.4-2.4,1.4-3.8V85.6c0-0.5,0.4-1,1-1h7.3c0.5,0,1,0.4,1,1v19.5c0,1.4,0.5,2.8,1.4,3.8l6.9,8
				C380.3,118,380.8,119.4,380.8,120.8z"/>
			<path class="st0" d="M371.6,79.7v2.7c0,0.4-0.3,0.7-0.7,0.7H362c-0.4,0-0.7-0.3-0.7-0.7v-2.7c0-0.4,0.3-0.7,0.7-0.7h8.9
				C371.2,79,371.6,79.3,371.6,79.7z"/>
		</g>
		<path class="st0" d="M408.8,180.8v0.6c0,0.6-0.5,1-1,1h-18.5c-0.6,0-1-0.5-1-1v-0.6c0-0.5,0.4-1,0.9-1l7-0.7
			c0.4,0,0.7-0.4,0.7-0.8v-18.3c-6-0.8-10.7-6-10.7-12.3l1.1-14c0-0.6,0.5-1,1.1-1h20.4c0.6,0,1.1,0.4,1.1,1l1.1,14
			c0,6.3-4.7,11.5-10.7,12.3v18.3c0,0.4,0.3,0.7,0.7,0.8l7,0.7C408.4,179.8,408.8,180.3,408.8,180.8z"/>
		<path class="st0" d="M437,180.8v0.6c0,0.6-0.5,1-1,1h-18.5c-0.6,0-1-0.5-1-1v-0.6c0-0.5,0.4-1,0.9-1l7-0.7c0.4,0,0.7-0.4,0.7-0.8
			v-18.3c-6-0.8-10.7-6-10.7-12.3l1.1-14c0-0.6,0.5-1,1.1-1H437c0.6,0,1.1,0.4,1.1,1l1.1,14c0,6.3-4.7,11.5-10.7,12.3v18.3
			c0,0.4,0.3,0.7,0.7,0.8l7,0.7C436.6,179.8,437,180.3,437,180.8z"/>
		<path class="st0" d="M447.6,192.2H333.7c-1.4,0-2.6-1.2-2.6-2.6v-4.8c0-1.4,1.2-2.6,2.6-2.6h113.9c1.4,0,2.6,1.2,2.6,2.6v4.8
			C450.2,191,449.1,192.2,447.6,192.2z"/>
	</g>
</g>
</svg>
